<svg width="17" height="23" viewBox="0 0 17 23" fill="none" xmlns="http://www.w3.org/2000/svg">
<path d="M8.5 0C4.10718 0 0.443359 3.53857 0.443359 8.05664C0.443359 9.77549 0.959863 11.3082 1.95112 12.7444L7.88345 22.0013C8.17124 22.4513 8.82935 22.4504 9.11655 22.0013L15.0746 12.7129C16.0445 11.3418 16.5566 9.73179 16.5566 8.05664C16.5566 3.61421 12.9424 0 8.5 0ZM8.5 11.7188C6.48081 11.7188 4.83789 10.0758 4.83789 8.05664C4.83789 6.03745 6.48081 4.39453 8.5 4.39453C10.5192 4.39453 12.1621 6.03745 12.1621 8.05664C12.1621 10.0758 10.5192 11.7188 8.5 11.7188Z" fill="white"/>
</svg>
