<svg width="25" height="21" viewBox="0 0 25 21" fill="none" xmlns="http://www.w3.org/2000/svg">
<path d="M12.3137 19.3466C12.3013 19.8852 11.8011 20.2759 11.3009 20.1854C11.9874 20.3102 13.5851 20.4849 14.4839 20.1854C13.963 20.2635 13.4877 19.8688 13.4753 19.3424C13.4753 19.3712 13.1239 16.5792 14.5294 13.9969C15.7323 11.7887 16.402 12.019 17.8116 11.4844C19.618 10.7977 21.4741 10.0905 22.7473 8.54846C24.8265 6.02781 24.2767 2.57373 24.099 1.64031C21.8668 4.82711 19.6056 3.92247 17.3279 5.374C15.013 6.85021 13.9796 9.1776 14.2028 11.6695C16.497 7.68083 19.3948 9.43665 22.3876 5.44802C21.6601 6.64872 20.6638 7.69317 19.4237 8.43744C17.6421 9.52301 16.7823 9.20638 14.0829 13.1046C13.5869 13.82 13.1859 14.6013 12.8965 15.4196C12.5617 14.4738 12.078 13.5651 11.4663 12.7674C10.2385 11.176 9.69701 10.2755 8.62223 9.50656C7.15062 8.44566 4.64556 8.03857 2.62416 4.69141C5.9973 9.19404 9.15962 7.13805 11.7308 11.616C11.9871 8.77873 10.7801 6.22518 8.25433 4.61328C5.72034 2.99727 3.20701 4.00471 0.72263 0.456055C0.52421 1.49639 -0.0875835 5.3411 2.22732 8.14549C3.6404 9.85849 5.69401 10.6403 7.69658 11.4027L7.71694 11.4104C8.68011 11.7764 11.1562 11.8874 12.1235 16.2749C12.3881 17.4921 12.3426 18.1952 12.3137 19.3466Z" fill="#00730C"/>
</svg>
